<svg width="53" height="53" viewBox="0 0 53 53" fill="none" xmlns="http://www.w3.org/2000/svg">
<path d="M46.8124 21.0833C46.8124 20.7242 46.6698 20.3797 46.4158 20.1258C46.1618 19.8718 45.8174 19.7292 45.4583 19.7292C45.0991 19.7292 44.7547 19.8718 44.5007 20.1258C44.2468 20.3797 44.1041 20.7242 44.1041 21.0833H46.8124ZM8.89575 21.0833C8.89575 20.7242 8.75308 20.3797 8.49913 20.1258C8.24517 19.8718 7.90073 19.7292 7.54159 19.7292C7.18244 19.7292 6.838 19.8718 6.58405 20.1258C6.33009 20.3797 6.18742 20.7242 6.18742 21.0833H8.89575ZM49.9162 27.4587C50.1704 27.713 50.5153 27.8559 50.8749 27.8559C51.2345 27.8559 51.5794 27.713 51.8337 27.4587C52.0879 27.2045 52.2308 26.8596 52.2308 26.5C52.2308 26.1404 52.0879 25.7955 51.8337 25.5412L49.9162 27.4587ZM26.4999 2.12499L27.4587 1.16624C27.3329 1.04013 27.1834 0.940077 27.0189 0.87181C26.8544 0.803542 26.678 0.768402 26.4999 0.768402C26.3218 0.768402 26.1454 0.803542 25.9809 0.87181C25.8164 0.940077 25.667 1.04013 25.5412 1.16624L26.4999 2.12499ZM1.16617 25.5412C0.911894 25.7955 0.769043 26.1404 0.769043 26.5C0.769043 26.8596 0.911894 27.2045 1.16617 27.4587C1.42045 27.713 1.76532 27.8559 2.12492 27.8559C2.48452 27.8559 2.82939 27.713 3.08367 27.4587L1.16617 25.5412ZM12.9583 52.2292H40.0416V49.5208H12.9583V52.2292ZM46.8124 45.4583V21.0833H44.1041V45.4583H46.8124ZM8.89575 45.4583V21.0833H6.18742V45.4583H8.89575ZM51.8337 25.5412L27.4587 1.16624L25.5412 3.08374L49.9162 27.4587L51.8337 25.5412ZM25.5412 1.16624L1.16617 25.5412L3.08367 27.4587L27.4587 3.08374L25.5412 1.16624ZM40.0416 52.2292C41.8373 52.2292 43.5595 51.5158 44.8293 50.246C46.0991 48.9762 46.8124 47.2541 46.8124 45.4583H44.1041C44.1041 46.5358 43.6761 47.5691 42.9142 48.3309C42.1523 49.0928 41.119 49.5208 40.0416 49.5208V52.2292ZM12.9583 49.5208C11.8808 49.5208 10.8475 49.0928 10.0856 48.3309C9.32377 47.5691 8.89575 46.5358 8.89575 45.4583H6.18742C6.18742 47.2541 6.90077 48.9762 8.17055 50.246C9.44033 51.5158 11.1625 52.2292 12.9583 52.2292V49.5208Z" fill="#F8F8F8"/>
</svg>
