<svg width="53" height="53" viewBox="0 0 53 53" fill="none" xmlns="http://www.w3.org/2000/svg">
<path d="M11.4265 17.0312L17.0478 11.4099L19.3897 13.7518L13.7684 19.3732L11.4265 17.0312ZM8.11563 32.6281L4.30625 28.8187C3.64375 28.1562 3.3125 27.3281 3.3125 26.5C3.3125 25.6719 3.64375 24.8438 4.30625 24.1813L8.11563 20.3719L10.4344 22.6906L6.625 26.5L10.4344 30.3094L8.11563 32.6281ZM11.4099 35.9522L13.7518 33.6103L19.3732 39.2316L17.0312 41.5735L11.4099 35.9522ZM26.5 49.6875C25.6719 49.6875 24.8438 49.3562 24.1813 48.6937L20.3719 44.8844L22.6906 42.5656L26.5 46.375L30.3094 42.5656L32.6281 44.8844L28.8187 48.6937C28.1562 49.3562 27.3281 49.6875 26.5 49.6875ZM33.6103 39.2482L39.2316 33.6268L41.5735 35.9688L35.9522 41.5901L33.6103 39.2482ZM44.8844 32.6281L42.5656 30.3094L46.375 26.5L42.5656 22.6906L44.8844 20.3719L48.6937 24.1813C49.3562 24.8438 49.6875 25.6719 49.6875 26.5C49.6875 27.3281 49.3562 28.1562 48.6937 28.8187L44.8844 32.6281ZM33.6268 13.7684L35.9688 11.4265L41.5901 17.0478L39.2482 19.3897L33.6268 13.7684ZM26.5 3.3125C25.6719 3.3125 24.8438 3.64375 24.1813 4.30625L20.3719 8.11563L22.6906 10.4344L26.5 6.625L30.3094 10.4344L32.6281 8.11563L28.8187 4.30625C28.1562 3.64375 27.3281 3.3125 26.5 3.3125Z" fill="#F8F8F8"/>
</svg>
