<svg width="24" height="24" viewBox="0 0 24 24" fill="none" xmlns="http://www.w3.org/2000/svg">
<path d="M5.616 20C5.168 20 4.78667 19.8427 4.472 19.528C4.15733 19.2133 4 18.8323 4 18.385V5.615C4 5.16833 4.15733 4.78733 4.472 4.472C4.78667 4.15733 5.168 4 5.616 4H18.385C18.8317 4 19.2127 4.15733 19.528 4.472C19.8427 4.78667 20 5.168 20 5.616V18.385C20 18.8317 19.8427 19.2127 19.528 19.528C19.2133 19.8427 18.8323 20 18.385 20H5.616ZM16.564 19H18.384C18.564 19 18.7117 18.9423 18.827 18.827C18.9423 18.7117 19 18.5643 19 18.385V16.564L16.564 19ZM5.562 19H8.022L11.022 16H12.262L9.262 19H11.669L14.669 16H15.909L12.909 19H15.323L18.323 16H19V5.616C19 5.436 18.9423 5.28833 18.827 5.173C18.7117 5.05767 18.5643 5 18.385 5H5.615C5.43567 5 5.28833 5.05767 5.173 5.173C5.05767 5.28833 5 5.436 5 5.616V18.32L7.321 16H8.561L5.562 19ZM10.675 10.289L7.985 12.954C7.89167 13.0473 7.781 13.0917 7.653 13.087C7.52567 13.083 7.41333 13.032 7.316 12.934C7.222 12.8407 7.175 12.726 7.175 12.59C7.175 12.454 7.22167 12.3393 7.315 12.246L10.11 9.452C10.2713 9.29 10.4597 9.209 10.675 9.209C10.8903 9.209 11.079 9.29 11.241 9.452L12.675 10.887L16.015 7.547C16.1083 7.453 16.2223 7.408 16.357 7.412C16.4917 7.416 16.6073 7.467 16.704 7.565C16.7973 7.65833 16.844 7.77 16.844 7.9C16.844 8.03 16.7973 8.14133 16.704 8.234L13.241 11.723C13.079 11.885 12.8903 11.966 12.675 11.966C12.4597 11.966 12.2713 11.885 12.11 11.723L10.675 10.289ZM5 18.384V5V19V18.384Z" fill="#F8F8F8"/>
</svg>
