<svg width="220" height="32" viewBox="0 0 220 32" fill="none" xmlns="http://www.w3.org/2000/svg">
<path d="M0.49707 0.034668V10.6782H11.1201V21.3217V31.9652L21.7472 21.3217V10.6782L11.1201 0.034668H0.49707Z" fill="white"/>
<path d="M32.3741 0.034668H21.7471V10.6782H32.3741V0.034668Z" fill="white"/>
<path d="M79.5022 7.63721L83.3477 16.2831H83.4315L87.2969 7.63721H92.1477V21.5209H88.8487V11.9282H88.7849L84.5006 21.5209H82.2746L78.0102 11.9282H77.9265V21.5209H74.6274V7.63721H79.5022Z" fill="white"/>
<path d="M144.525 16.998H147.948C148.16 17.7131 148.582 18.2166 149.221 18.5122C149.859 18.8079 150.653 18.9557 151.606 18.9557C152.364 18.9557 153.01 18.8358 153.549 18.5961C154.087 18.3564 154.359 18.0008 154.359 17.5254C154.359 17.1898 154.211 16.9181 153.916 16.7143C153.621 16.5106 153.258 16.3547 152.823 16.2509C152.388 16.147 151.758 16.0311 150.932 15.9033C149.699 15.7195 148.686 15.5157 147.888 15.284C147.09 15.0523 146.4 14.6487 145.818 14.0734C145.236 13.4981 144.944 12.699 144.944 11.6762C144.944 10.0062 145.539 8.86752 146.731 8.25624C147.92 7.64496 149.273 7.34131 150.784 7.34131C152.647 7.34131 154.139 7.70888 155.256 8.44402C156.377 9.17916 157.019 10.3418 157.187 11.9239H153.764C153.653 11.3366 153.318 10.9011 152.767 10.6215C152.213 10.3418 151.55 10.202 150.78 10.202C150.05 10.202 149.444 10.3098 148.953 10.5296C148.463 10.7453 148.219 11.0809 148.219 11.5284C148.219 11.9759 148.487 12.2995 149.017 12.4953C149.548 12.691 150.39 12.8828 151.538 13.0626C152.799 13.2744 153.836 13.4981 154.646 13.7378C155.46 13.9775 156.158 14.3851 156.744 14.9684C157.331 15.5517 157.626 16.3547 157.626 17.3775C157.638 19.0196 157.047 20.1703 155.851 20.8255C154.654 21.4847 153.238 21.8123 151.598 21.8123C147.202 21.8123 144.841 20.2062 144.521 16.994L144.525 16.998Z" fill="white"/>
<path d="M182.227 7.63721L187.815 21.5209H184.285L183.216 18.8081H177.228L176.159 21.5209H172.633L178.218 7.63721H182.231H182.227ZM182.143 16.0913L180.272 11.3808H180.188L178.317 16.0913H182.139H182.143Z" fill="white"/>
<path d="M192.486 20.9174C191.373 20.3221 190.499 19.4751 189.861 18.3724C189.223 17.2737 188.904 16.0071 188.904 14.5768C188.904 13.1465 189.223 11.88 189.861 10.7813C190.499 9.68257 191.373 8.83157 192.486 8.23627C193.599 7.64097 194.836 7.34131 196.192 7.34131C197.409 7.34131 198.518 7.57704 199.511 8.04449C200.504 8.51593 201.334 9.17516 202 10.0302C202.666 10.8852 203.109 11.876 203.333 12.9947H199.846C199.567 12.1796 199.116 11.5404 198.49 11.0689C197.867 10.5975 197.101 10.3658 196.192 10.3658C195.394 10.3658 194.692 10.5495 194.082 10.9131C193.471 11.2767 193.005 11.7801 192.674 12.4154C192.346 13.0546 192.179 13.7738 192.179 14.5728C192.179 15.3719 192.342 16.091 192.674 16.7303C193.005 17.3695 193.471 17.869 194.082 18.2325C194.692 18.5961 195.394 18.7799 196.192 18.7799C197.101 18.7799 197.867 18.5442 198.49 18.0767C199.112 17.6053 199.563 16.966 199.846 16.151H203.333C203.109 17.2737 202.662 18.2605 202 19.1155C201.334 19.9705 200.504 20.6337 199.511 21.1012C198.518 21.5726 197.413 21.8043 196.192 21.8043C194.832 21.8043 193.599 21.5047 192.486 20.9094V20.9174Z" fill="white"/>
<path d="M70.4308 7.63721H59.002V21.5169H70.4308V18.5724H62.301V15.8196H69.5492V12.9789H62.301V15.8076V12.9789V10.5818H70.4308V7.63721Z" fill="white"/>
<path d="M124.575 7.63721H113.146V21.5169H124.575V18.5724H116.445V15.8196H123.694V12.9789H116.445V15.8076V12.9789V10.5818H124.575V7.63721Z" fill="white"/>
<path d="M141.019 15.0926C141.537 14.3295 141.796 13.4505 141.796 12.4516C141.796 11.4528 141.565 10.6577 141.102 9.92661C140.64 9.19946 140.005 8.63213 139.204 8.2326C138.398 7.83307 137.5 7.6333 136.503 7.6333H128.772V21.517H132.071V17.266H135.538L137.975 21.517H141.629L138.9 16.8065C139.798 16.427 140.504 15.8557 141.023 15.0926H141.019ZM137.943 13.7581C137.572 14.1217 137.093 14.3055 136.503 14.3055H132.071V17.1421V10.5818H136.503C137.089 10.5818 137.572 10.7656 137.943 11.1292C138.314 11.4928 138.501 11.9363 138.501 12.4556C138.501 12.975 138.314 13.3945 137.943 13.7581Z" fill="white"/>
<path d="M109.054 9.92661C108.591 9.19946 107.957 8.63213 107.155 8.2326C106.349 7.83307 105.451 7.6333 104.454 7.6333H96.7231V21.517H100.022V17.266H104.454C105.447 17.266 106.349 17.0622 107.155 16.6547C107.961 16.2472 108.595 15.6799 109.054 14.9527C109.516 14.2216 109.748 13.3905 109.748 12.4476C109.748 11.5048 109.516 10.6538 109.054 9.92262V9.92661ZM105.89 13.7581C105.519 14.1217 105.04 14.3055 104.45 14.3055H100.018V17.1421V10.5818H104.45C105.037 10.5818 105.519 10.7656 105.89 11.1292C106.261 11.4928 106.449 11.9363 106.449 12.4556C106.449 12.975 106.261 13.3945 105.89 13.7581Z" fill="white"/>
<path d="M213.908 14.3893L219.497 7.63721H215.651L211.303 12.8751H209.269L209.265 15.7117V12.8751H209.269V7.63721H205.97V21.5169H209.269V15.8795H211.156L215.695 21.5169H219.621L213.908 14.3893Z" fill="white"/>
<path d="M50.5449 7.63721V10.6617L47.3018 7.63721H42.5786V10.6656H47.2619V21.5169H50.5609V10.6656H55.2641V7.63721H50.5449Z" fill="white"/>
<path d="M167.654 7.63721V10.6617L164.411 7.63721H159.692V10.6656H164.375V21.5169H167.67V10.6656H172.377V7.63721H167.654Z" fill="white"/>
</svg>
